<svg width="32" height="33" viewBox="0 0 32 33" fill="none" xmlns="http://www.w3.org/2000/svg">
<path d="M8.8216 23.1352L6.23785 22.0125C6.23785 22.0125 6.1241 22.6271 5.83566 22.9565C5.51066 23.326 4.9541 23.5249 4.9541 23.5249C4.9541 23.5249 5.25676 23.8703 5.27707 23.9527C5.29738 24.035 5.98191 26.3307 5.98191 26.3307C5.98191 26.3307 6.5202 26.6782 6.68676 26.8027C6.85332 26.9272 7.2677 27.0277 7.47488 26.7003C7.68207 26.3729 8.02129 25.9069 8.28332 25.5936C8.58598 25.2301 8.90285 24.9951 8.90285 24.9951C8.90285 24.9951 10.0871 25.4912 11.7243 25.4912C13.3614 25.4912 15.2058 24.7942 17.3 23.2377C19.3943 21.6811 21.7627 19.3693 22.3843 18.8772C23.0058 18.3852 24.3058 17.4572 24.9497 17.2945C25.5936 17.1319 26.1319 17.2544 26.1319 17.6641C26.1319 18.0738 25.8618 18.3209 26.0689 18.4635C26.2761 18.6061 26.9607 18.0538 26.9607 17.9915C26.9607 17.9292 26.8977 16.0453 26.8977 16.0453L25.0919 14.8864C25.0919 14.8864 25.5855 14.2698 26.006 13.7496C26.335 13.3418 26.855 12.8076 26.855 12.8076C26.855 12.8076 26.8753 12.0906 26.7514 12.1508C26.6275 12.2111 21.4661 13.9946 20.4078 14.8964C19.3496 15.7982 15.1225 19.8152 15.0616 19.8353C15.0007 19.8554 8.8216 23.1352 8.8216 23.1352Z" fill="#307B32"/>
<path d="M4.95619 23.5188C4.69213 23.6413 3.90604 23.9105 3.94869 24.4628C3.98932 25.0151 4.53775 25.3807 4.98869 25.6779C5.4376 25.9752 5.984 26.3347 5.984 26.3347C5.984 26.3347 6.85541 25.9672 6.89604 25.0854C6.91635 24.6355 6.44104 24.3262 6.12822 24.041C5.81541 23.7558 5.41525 23.2999 5.41525 23.2999C5.41525 23.2999 5.2365 23.3903 4.95619 23.5188ZM11.3587 4.03046C11.3607 4.13089 12.4474 3.98829 12.941 4.46631C13.4224 4.93228 13.5829 5.83208 12.8009 6.98093C12.0188 8.12979 10.077 10.4275 9.1365 11.5964C8.19604 12.7654 6.03072 15.2981 5.65088 17.8489C5.25275 20.5222 5.73416 22.4804 7.14385 23.6494C8.55354 24.8183 10.4812 25.5956 13.6723 24.3061C16.2337 23.2698 17.7348 21.2532 20.1398 19.3251C22.5448 17.3969 24.0581 16.4349 25.4881 16.3746C26.9181 16.3124 26.9384 17.399 26.7515 17.7886C26.5646 18.1782 26.1381 18.5217 26.2965 18.4655C26.4915 18.3952 27.1456 18.1983 27.4787 17.3186C27.8098 16.4369 27.3751 15.3724 26.4224 14.9627C25.4698 14.5529 23.4162 14.9426 21.8217 15.7821C20.2251 16.6217 18.5473 17.8529 18.3178 18.0356C18.0903 18.2204 17.6332 18.0758 18.0273 17.6259C18.4213 17.176 20.5156 15.2479 22.8353 14.2436C25.1549 13.2394 26.8571 12.8096 26.8571 12.8096C26.8571 12.8096 27.562 12.1327 27.7692 11.9479C27.9763 11.7631 28.2871 11.6205 28.2465 11.4157C28.2059 11.2108 27.2573 10.9256 25.9756 11.6728C25.9715 11.6748 16.8045 12.3797 16.8045 12.215C16.8045 12.0504 18.011 4.26144 17.9907 3.97423C17.9704 3.68701 17.8587 3.48014 17.686 3.5886C17.5296 3.68701 16.9385 4.56271 16.6806 4.89612C16.4571 5.18334 16.1199 5.57298 16.0996 5.51072C16.0793 5.44846 15.9392 3.61471 14.8748 3.05032C13.0913 2.10834 11.3465 3.61672 11.3587 4.03046Z" fill="#649726"/>
<path d="M12.4899 16.2904C11.8278 17.13 6.87354 18.8312 6.87354 18.8312C6.87354 18.8312 7.12947 17.2103 8.03338 15.4087C9.46541 12.5566 13.9809 8.79474 15.0798 6.49302C15.7318 5.12725 15.4738 4.0748 14.9356 3.48029C14.3973 2.88577 13.8671 2.7492 13.8671 2.7492C13.8671 2.7492 15.4129 2.703 15.9938 4.11698C16.5748 5.53095 16.0771 6.53519 16.0771 6.53519C16.0771 6.53519 16.7617 5.73582 17.2167 5.08105C17.6717 4.42428 17.9621 3.80968 17.9621 3.80968C17.9621 3.80968 18.2729 4.50662 18.0657 5.55104C17.8585 6.59545 17.5681 7.16988 17.5681 7.16988L12.4899 16.2904Z" fill="#307B32"/>
<path d="M22.8332 3.6248C22.8332 3.6248 23.2313 2.95196 23.9727 2.8656C24.8645 2.76316 25.3621 3.27533 25.3621 3.27533C25.3621 3.27533 26.1238 2.47595 27.0907 3.08251C27.9824 3.64288 27.4807 4.63507 27.4807 4.63507C27.4807 4.63507 28.2241 4.80981 28.2059 5.74577C28.1876 6.63753 27.6229 6.985 27.6229 6.985L23.7473 12.191L21.0945 14.0971L19.6441 15.019L16.8674 16.925L10.733 21.4341C10.733 21.4341 8.51086 22.7074 7.3957 21.4963C6.77414 20.8195 6.73149 20.0201 6.77414 19.4677C6.83508 18.6503 7.00164 18.2526 7.37539 17.8288C7.86289 17.2765 8.41133 17.1319 8.41133 17.1319C8.41133 17.1319 8.21227 16.2923 8.78102 15.4488C9.3457 14.6132 10.2151 14.6936 10.2151 14.6936C10.2151 14.6936 10.1846 13.5407 10.8488 12.9462C11.5252 12.3396 11.8949 12.6228 11.9355 12.5204C11.9762 12.418 11.836 11.717 12.6445 11.006C13.2254 10.4958 14.0074 10.6344 14.0074 10.6344C14.0074 10.6344 13.8571 9.67236 14.6209 8.93324C15.4232 8.15595 16.1829 8.60585 16.1829 8.60585C16.1829 8.60585 16.0387 7.65182 16.5668 7.06735C17.1965 6.37241 17.8404 6.4166 17.8404 6.4166C17.8404 6.4166 17.946 5.55697 18.6346 4.96647C19.1566 4.51657 20.0402 4.59089 20.1012 4.50854C20.1621 4.42619 20.4404 3.64891 21.2691 3.38178C22.1487 3.09657 22.8332 3.6248 22.8332 3.6248Z" fill="#FFC01E"/>
<path d="M26.0954 7.51324C26.0954 7.51324 25.9877 8.41304 25.6769 8.81273C25.1143 9.53779 24.5597 9.40523 24.5597 9.40523C24.5597 9.40523 24.7994 10.3231 24.2611 10.9719C23.6599 11.6949 22.7946 11.6025 22.7946 11.6025C22.7946 11.6025 22.8413 12.3838 22.4025 12.8277C21.7444 13.4945 21.2163 13.362 21.2163 13.362C21.2163 13.362 21.2163 13.7918 20.875 14.2035C20.7999 14.2939 23.0749 12.9 23.798 12.5586C24.5211 12.2151 25.9796 11.6728 25.9796 11.6728C25.9796 11.6728 26.8022 11.1727 27.0054 10.5159C27.2085 9.85915 27.0785 9.30079 27.1354 9.10195C27.1922 8.90311 27.568 8.65808 27.7427 8.08767C27.9174 7.51726 27.7061 6.91471 27.7061 6.91471C27.7061 6.91471 27.5436 7.18987 27.1191 7.37064C26.5849 7.59559 26.0954 7.51324 26.0954 7.51324ZM23.8427 4.31372C23.8427 4.31372 23.6843 4.58487 23.5827 4.7576C23.4811 4.92832 23.3654 5.15729 23.3654 5.15729C23.3654 5.15729 23.1054 5.14323 22.888 5.12917C22.6707 5.11511 22.3071 5.14122 22.3071 5.14122C22.3071 5.14122 22.4797 4.90823 22.5955 4.76563C22.7113 4.62303 22.76 4.37197 22.76 4.37197C22.76 4.37197 22.9632 4.40009 23.2516 4.38603C23.538 4.36996 23.8427 4.31372 23.8427 4.31372ZM9.32129 18.9295C9.32129 18.9295 9.36395 18.4012 9.37816 18.1723C9.39238 17.9433 9.33551 17.5436 9.33551 17.5436C9.33551 17.5436 10.3186 17.4291 10.7229 16.7442C11.1271 16.0594 11.056 15.5592 11.056 15.5592C11.056 15.5592 12.0818 15.73 12.6444 14.7297C13.2071 13.7295 12.8313 13.1872 12.9186 13.2294C13.006 13.2716 14.0033 13.143 14.5233 12.3858C15.0433 11.6286 14.9133 11.2289 14.9133 11.2289C14.9133 11.2289 15.7807 11.1727 16.1991 10.544C16.6175 9.91539 16.516 9.28673 16.516 9.28673C16.516 9.28673 17.3894 9.2546 17.8505 8.74043C18.3136 8.22625 18.3888 7.39273 18.3888 7.39273C18.3888 7.39273 18.8661 7.49516 19.6319 7.06736C20.3977 6.63955 20.6029 5.78594 20.6029 5.78594C20.6029 5.78594 20.8689 5.83816 21.1147 5.80201C21.4174 5.75782 21.588 5.65539 21.588 5.65539C21.588 5.65539 21.4296 5.80201 21.3179 6.2258C21.2366 6.5331 21.1939 6.83035 21.1939 6.83035C21.1939 6.83035 20.5135 6.53511 19.8208 7.43089C19.4004 7.9772 19.4207 8.62795 19.4207 8.62795C19.4207 8.62795 18.7585 8.51146 18.1633 9.22849C17.6149 9.88727 17.7144 10.4296 17.7144 10.4296C17.7144 10.4296 16.9486 10.3573 16.4002 11.0723C15.801 11.8516 15.9818 12.6429 15.9818 12.6429C15.9818 12.6429 15.0291 12.5425 14.566 13.143C14.1029 13.7436 14.176 14.5429 14.176 14.5429C14.176 14.5429 13.4935 14.4646 12.9471 15.1154C12.4555 15.7018 12.5286 16.1156 12.5286 16.1156C12.5286 16.1156 11.6613 16.1015 11.1129 16.8166C10.5644 17.5316 10.5644 18.3591 10.5644 18.3591C10.5644 18.3591 10.1744 18.3872 9.87176 18.5298C9.56707 18.6724 9.32129 18.9295 9.32129 18.9295ZM11.9497 19.7289C11.9497 19.7289 12.6871 19.9136 13.2071 19.0861C13.7271 18.2566 13.6986 17.5296 13.6986 17.5296C13.6986 17.5296 14.5213 17.5577 15.0129 16.929C15.5044 16.3004 15.5308 15.491 15.5308 15.491C15.5308 15.491 16.2946 15.5211 16.8044 14.7579C17.2188 14.1392 17.2229 13.5146 17.2229 13.5146C17.2229 13.5146 17.8444 13.4001 18.336 12.8136C18.8275 12.2272 18.726 11.4137 18.726 11.4137C18.726 11.4137 19.5791 11.47 20.0707 10.6987C20.5622 9.92744 20.4322 9.45545 20.4322 9.45545C20.4322 9.45545 21.0761 9.54181 21.6408 8.84085C22.2035 8.13989 21.9638 7.53935 21.9638 7.53935C21.9638 7.53935 22.8311 7.72413 23.3654 7.1256C23.8996 6.52506 23.9524 5.80201 24.0011 5.81205C24.2855 5.86427 25.0371 5.53488 25.0371 5.53488C25.0371 5.53488 24.9639 6.16354 24.9944 6.55118C24.9985 6.59536 24.188 6.52707 23.668 7.3847C23.148 8.24232 23.3511 8.81273 23.3511 8.81273C23.3511 8.81273 22.5935 8.88303 22.2319 9.52574C21.8704 10.1685 21.9943 10.8835 21.9943 10.8835C21.9943 10.8835 21.3077 10.6405 20.7511 11.3695C20.3875 11.8455 20.3896 12.3838 20.3896 12.3838C20.3896 12.3838 19.6197 12.0825 19.0347 13.0466C18.6082 13.7496 18.7991 14.5409 18.7991 14.5409C18.7991 14.5409 18.0618 14.4988 17.4707 15.1696C16.8775 15.8404 16.8654 16.923 16.8654 16.923C16.8654 16.923 15.4618 18.1 14.2044 19.0721C13.1766 19.8654 10.6294 21.5104 10.7289 21.4341C11.1433 21.1107 11.3586 20.9038 11.6044 20.5604C11.8502 20.2189 11.9497 19.7289 11.9497 19.7289Z" fill="#F99628"/>
<path d="M21.5738 3.85593C21.2244 3.71132 20.8222 3.84187 20.7064 4.34198C20.6272 4.68343 20.7064 4.97064 21.0091 5.09918C21.3483 5.24179 21.6124 4.95859 21.7322 4.71355C21.9049 4.35604 21.848 3.97041 21.5738 3.85593ZM19.6075 5.14337C19.3638 4.95256 18.8702 5.07107 18.6244 5.60131C18.3786 6.13155 18.4924 6.62162 18.9413 6.64371C19.5364 6.67183 20.158 5.57118 19.6075 5.14337ZM17.4849 7.0434C17.2391 6.89075 16.7699 6.99118 16.5464 7.47121C16.3738 7.84278 16.451 8.25853 16.7333 8.38507C17.0217 8.51361 17.4016 8.3208 17.6006 7.92713C17.7733 7.58569 17.8302 7.2563 17.4849 7.0434ZM15.7786 8.94343C15.413 8.69638 14.9255 8.88719 14.6228 9.35718C14.3202 9.82917 14.3486 10.3715 14.6371 10.5422C14.9255 10.7129 15.4719 10.5964 15.7928 10.0702C16.0833 9.6002 16.0975 9.15633 15.7786 8.94343ZM13.597 11.215C13.337 11.0102 12.8455 11.1588 12.6281 11.5585C12.4108 11.9582 12.5327 12.2514 12.7581 12.4161C13.0324 12.6169 13.3655 12.5165 13.6397 12.159C13.9139 11.8015 13.8144 11.3857 13.597 11.215ZM12.0208 13.1412C11.8014 12.9443 11.3119 12.9986 11.0519 13.3842C10.7919 13.7698 10.8792 14.1555 11.1535 14.3262C11.4277 14.4969 11.8177 14.284 12.0208 14.041C12.2219 13.7979 12.3235 13.4123 12.0208 13.1412ZM9.84127 15.4409C9.54471 15.242 9.13236 15.469 8.98814 15.698C8.84393 15.9269 8.82971 16.2543 9.11814 16.4692C9.40658 16.6841 9.8108 16.5255 9.95705 16.3126C10.1013 16.0977 10.2455 15.712 9.84127 15.4409ZM11.2428 17.4875C11.06 17.833 11.0986 18.1584 11.3302 18.3592C11.5617 18.5601 11.966 18.4456 12.2117 18.0599C12.3377 17.8611 12.3844 17.4313 12.0817 17.2304C11.777 17.0296 11.3871 17.2144 11.2428 17.4875ZM13.3797 15.7442C13.1522 16.0354 13.1766 16.3869 13.3797 16.5737C13.5828 16.7584 14.0886 16.646 14.2755 16.3447C14.4339 16.0876 14.4055 15.7884 14.1739 15.5875C13.9911 15.4268 13.6255 15.4288 13.3797 15.7442ZM15.0433 14.286C15.3114 14.4889 15.6791 14.3583 15.8517 14.1856C16.0244 14.0128 16.1849 13.6132 15.9533 13.3561C15.7217 13.099 15.2891 13.1854 15.0433 13.4424C14.7975 13.7015 14.7975 14.1012 15.0433 14.286ZM16.6744 11.2431C16.4428 11.6047 16.3413 12.2153 16.7475 12.4282C17.1802 12.6571 17.6433 12.1851 17.8464 11.8557C18.0495 11.5263 18.0495 11.0564 17.7164 10.8696C17.3447 10.6647 16.9486 10.8153 16.6744 11.2431ZM18.3217 9.58614C18.0638 9.98985 17.9317 10.5 18.2649 10.7571C18.5492 10.978 19.0449 10.729 19.3191 10.3433C19.5933 9.95771 19.6522 9.52991 19.3475 9.25675C19.0449 8.98561 18.5675 9.20051 18.3217 9.58614ZM20.028 7.658C19.7842 7.93718 19.7111 8.34289 19.9711 8.57186C20.2311 8.80083 20.5785 8.77271 20.8527 8.42925C21.1269 8.0858 21.1127 7.70017 20.81 7.50133C20.5399 7.32459 20.2149 7.44309 20.028 7.658Z" fill="#FBE36A"/>
<path opacity="0.2" d="M22.5229 20.0045C22.5836 21.2425 22.2717 22.4705 21.6266 23.5332C20.9816 24.5959 20.0323 25.4456 18.8988 25.9748C17.7654 26.5041 16.4986 26.6891 15.2588 26.5065C14.019 26.3239 12.8618 25.7819 11.9336 24.9489C11.0053 24.116 10.3477 23.0296 10.0439 21.8272C9.74003 20.6247 9.80364 19.3601 10.2266 18.1934C10.6496 17.0267 11.413 16.0102 12.4203 15.2725C13.4276 14.5347 14.6334 14.1089 15.8855 14.0488C16.7168 14.009 17.5479 14.1314 18.3313 14.4091C19.1148 14.6868 19.8353 15.1144 20.4516 15.6674C21.0679 16.2205 21.5681 16.8881 21.9235 17.6323C22.2789 18.3764 22.4825 19.1825 22.5229 20.0045Z" fill="#1725CA"/>
<path d="M25.911 28.1818L21.7577 24.4551C22.8411 23.0357 23.3294 21.2579 23.1209 19.4916C22.9125 17.7253 22.0234 16.1064 20.6386 14.9718C19.2538 13.8372 17.4799 13.2742 15.6859 13.3999C13.892 13.5256 12.2161 14.3303 11.007 15.6467C9.79781 16.9631 9.14846 18.6897 9.19401 20.4674C9.23956 22.2452 9.97651 23.9371 11.2515 25.1912C12.5266 26.4453 14.2415 27.1651 16.0396 27.2009C17.8376 27.2366 19.5804 26.5854 20.9054 25.3829L25.0587 29.1105C25.1204 29.1658 25.1925 29.2086 25.2709 29.2364C25.3493 29.2642 25.4324 29.2764 25.5156 29.2724C25.5988 29.2684 25.6804 29.2483 25.7557 29.2131C25.831 29.178 25.8985 29.1285 25.9545 29.0675C26.0104 29.0065 26.0537 28.9352 26.0818 28.8577C26.1099 28.7802 26.1223 28.698 26.1183 28.6158C26.1142 28.5335 26.0939 28.4529 26.0583 28.3784C26.0227 28.3039 25.9727 28.2371 25.911 28.1818ZM10.4953 20.5816C10.4406 19.4674 10.7213 18.3622 11.3019 17.4057C11.8824 16.4493 12.7368 15.6846 13.7569 15.2082C14.777 14.7319 15.9171 14.5654 17.0329 14.7298C18.1487 14.8941 19.1902 15.3819 20.0256 16.1316C20.8611 16.8812 21.4529 17.8589 21.7264 18.9411C21.9998 20.0234 21.9426 21.1615 21.5619 22.2115C21.1812 23.2616 20.4941 24.1764 19.5876 24.8404C18.681 25.5043 17.5957 25.8876 16.4689 25.9416C14.9584 26.0124 13.4811 25.4879 12.3612 24.483C11.2413 23.4781 10.5702 22.075 10.4953 20.5816Z" fill="#1725CA"/>
</svg>
